<svg width="50" height="50" viewBox="0 0 50 50" fill="none" xmlns="http://www.w3.org/2000/svg">
<rect width="50" height="50" fill="white"/>
<path d="M33.4483 17.8671C32.7203 16.5618 31.6667 15.5734 30.2874 14.9021C28.9464 14.1935 27.3563 13.8392 25.5172 13.8392C22.3372 13.8392 19.7893 14.8648 17.8736 16.9161C15.9579 18.9301 15 21.634 15 25.028C15 28.6457 15.9962 31.4802 17.9885 33.5315C20.0192 35.5455 22.7969 36.5524 26.3218 36.5524C28.7356 36.5524 30.7663 35.9557 32.4138 34.7622C34.0996 33.5688 35.3257 31.8531 36.0919 29.6154H23.6207V22.5664H45V31.4615C44.272 33.8485 43.0268 36.0676 41.2644 38.1189C39.5402 40.1702 37.3372 41.8298 34.6552 43.0979C31.9732 44.366 28.9464 45 25.5747 45C21.59 45 18.0268 44.1608 14.8851 42.4825C11.7816 40.7669 9.34866 38.3986 7.58621 35.3776C5.86207 32.3566 5 28.9068 5 25.028C5 21.1492 5.86207 17.6993 7.58621 14.6783C9.34866 11.62 11.7816 9.25175 14.8851 7.57343C17.9885 5.85781 21.5326 5 25.5172 5C30.3448 5 34.4061 6.13753 37.7011 8.41259C41.0345 10.6876 43.2375 13.8392 44.3103 17.8671H33.4483Z" fill="url(#paint0_linear_46_16)"/>
<defs>
<linearGradient id="paint0_linear_46_16" x1="25" y1="5" x2="25" y2="45" gradientUnits="userSpaceOnUse">
<stop stop-color="#2a5f50"/>
<stop offset="1" stop-color="#2a5f50"/>
</linearGradient>
</defs>
</svg>
